<svg xmlns="http://www.w3.org/2000/svg" width="2500" height="1070" viewBox="0 0 634.11 271.37"><path fill="#FFC500" d="m118.81 147.3 8.67 25.45c4.7 13.77 8.88 24.78 9.43 24.78a.04.04 0 0 0 .02-.01c.6-.53 17.57-49.81 17.57-49.81h32.89L147.7 263.33h-22.86s-24.4-70.47-24.3-70.74l-25.47 69.85H52.45L13.27 147.29l32.73.02s17.93 50.82 18.17 50.82l17.89-50.84h36.75m-116.72-8 3.6 10.58 39.19 115.15 1.84 5.42h33.96l1.92-5.26 17.68-48.5 4.82 13.99a35089.14 35089.14 0 0 0 12.19 35.27l1.86 5.39h34.27l1.86-5.4 39.68-115.62 3.63-10.6h-49.8l-1.85 5.4a6877.53 6877.53 0 0 1-10.3 29.67 743.77 743.77 0 0 1-1.59-4.61l-8.67-25.46-1.84-5.42H76.39l-1.88 5.34-10.45 29.71a13093.65 13093.65 0 0 1-10.52-29.69l-1.88-5.33h-5.65l-32.73-.03H2.1zm623.26 7.55-.07 30.3s-32.65-.1-49.24-.1c-5.52 0-9.27.01-9.45.04-2.86.53-4.68 6.6-3.87 9.28.4 1.35 3.4 5.76 6.63 9.8 3.23 4.06 8.54 10.69 11.78 14.74 8.32 10.38 9.46 12.43 10.23 18.39 1.25 9.68-3.33 20.16-11.83 27.07-8.52 6.93-8.14 6.98-71.38 6.98h-2.77c-38.47-.01-58.8-.33-61.77-1-5.26-1.18-13.64-8.02-35.79-29.27-7.96-7.64-15.3-14.32-15.69-14.33l-.01.02-.26 44.58-35.9-.16-.22-114.98h80.06c24.13.87 40.46 24.91 37.2 40.24a45.33 45.33 0 0 1-4.17 11.2c-3.21 5.5-11.38 12.56-18.01 15.6-2.45 1.1-4.45 2.39-4.45 2.85 0 1.71 8.06 9.65 11.08 10.9 2.58 1.09 10.09 1.33 43.2 1.33h10.62c33.29 0 31.61-.24 34.18-5.74 1.8-3.83.44-6.12-12.23-20.4-16.05-15.96-14.37-23.61-14.48-29.26-.23-6.77 5.1-28.07 32.8-28.07h73.8m-215.06 53.11c15.37 0 18.5-.24 21.76-1.66 11.04-4.8 11.63-18.98 1.04-25.27-2.32-1.38-5.3-1.6-21.96-1.7l-19.28-.1c.16.15-.06 27.57-.06 27.57s4.83 1.16 18.5 1.16m223.09-61.12h-81.82c-16.03 0-25.52 6.33-30.65 11.64-8.35 8.63-10.3 19.5-10.16 24.63v1.32c-.07 8.33 1.15 17.76 16.66 33.25 3.06 3.45 8.19 9.23 10.13 12.11-4.24.52-14.98.52-26.27.52h-10.6c-19.9 0-36.69-.06-40.13-.74-.48-.3-1.15-.85-1.9-1.5 6.88-4.23 13.83-10.8 17.1-16.4a53.33 53.33 0 0 0 5.1-13.57c2.05-9.63-1.32-21.24-9-31.07-8.95-11.47-21.98-18.33-35.74-18.83h-88.37l.02 8.01.22 114.98.02 7.95 7.95.03 35.9.16 7.98.04.05-7.99.15-26.7c.74.69 1.5 1.41 2.27 2.16 24.23 23.24 32.36 29.68 39.57 31.3 1.98.45 5.25 1.18 63.52 1.2h2.78c31.54 0 47.38 0 56.8-.91 10.79-1.05 14.26-3.5 19.46-7.73l.17-.14c10.69-8.69 16.32-21.83 14.72-34.3-1.05-8.11-3.2-11.48-11.93-22.37l-2.59-3.24a12555.88 12555.88 0 0 1-9.18-11.47 81.25 81.25 0 0 1-4.48-6.14h4.92c16.4 0 48.88.1 49.21.1l8 .03.03-8 .07-30.31.02-8.02zm-233.54 52.83.04-6.56.02-5.84 11.19.06c6.43.03 16.1.09 17.99.62 2.4 1.46 3.75 3.72 3.6 6.06-.08 1.27-.68 3.6-3.82 4.95-1.75.77-4.54 1-18.57 1-4.45 0-7.88-.13-10.45-.29zM283 146.37l40.3 115.92-32.84.15-5.45-17.41-58.7-.47-5.18 17.43-32.5-.34 39.78-115.23 54.59-.05m-26.4 17c-.08.33-5.15 14.22-10.22 28.1-5.12 14-10.26 28-10.33 28.1a3880.28 3880.28 0 0 1 39.52-.04c-.2-.53-18.91-55.49-18.97-56.16v-.01m32.09-25-5.7.01-54.59.05h-5.7l-1.85 5.4-39.78 115.22-3.62 10.5 11.1.11 32.5.34 6.03.07 1.72-5.79 3.47-11.66 46.85.38 3.7 11.85 1.77 5.63 5.91-.02 32.83-.15 11.2-.05-3.68-10.58-40.3-115.92-1.86-5.38zm-41.13 73.15 6.33-17.29 2.4-6.54 2.16 6.4a22254 22254 0 0 0 5.92 17.42h-16.8zM296.58 8v28.6H239.3v87.47h-34.15V36.54l-66.86.2c-8.06 0-9.14 6.41-9.14 8.87 0 3.02 1.97 6.04 12.79 19.74 7.02 8.9 13.47 17.78 14.32 19.72 4.64 10.68-1.36 27.32-12.29 34.08-7.79 4.81-6.46 4.93-64.3 4.93H8V91.95h97.9l2.89-2a8.3 8.3 0 0 0 3.51-5.8c.6-3.68.29-4.16-11.8-17.78-14.29-16.1-15.8-19.04-15.06-29.32.84-11.73 11.3-28.77 29.58-28.77l181.56-.27m8-8.01-8.01.01L115 .28c-10.46 0-20.17 4.52-27.34 12.73-5.82 6.65-9.63 15.43-10.21 23.47-.97 13.51 2.14 18.4 17.06 35.2 4.33 4.88 8.44 9.52 9.82 11.5a1.29 1.29 0 0 1-.06.15l-.07.05-.82.57H0v48.13h79.66c28.52 0 42.6-.02 50.9-.63 9.49-.7 12.51-2.32 17.05-5.14l.57-.35c14.26-8.82 21.6-29.83 15.42-44.08-1.91-4.35-14-19.74-15.38-21.48-3.8-4.81-10.06-12.74-11.05-15.04.02-.2.07-.4.12-.53.16-.04.48-.1 1-.1l58.86-.17v87.52h50.15V44.61h57.28V0zm85.06 8.94 40.18 116.22-32.77-.18-5.32-17.4-58.44-.27-5.22 16.77H294.7L334.44 8.94h55.2m-46.81 73.62 39.8-.05c.14 0-19.34-57.2-19.47-57.24-.14 0-20.78 57.3-20.33 57.3M395.34.93h-66.6l-1.86 5.4-39.74 115.13-3.66 10.61h50.48l1.75-5.62 3.47-11.12 46.63.2 3.6 11.78 1.72 5.63 5.89.03 32.77.18 11.3.06-3.7-10.67L397.21 6.33 395.34.94zm-41.4 73.6a4094.32 4094.32 0 0 1 9.02-25.3 9890.78 9890.78 0 0 1 8.59 25.29l-17.6.02zM502.5 8.95c25.92 0 43.9.37 47.37.97 8 1.4 15.23 5.66 20.65 12.22 5.67 6.86 6.97 10.14 7.7 19.54 1.07 13.27-5.24 24.72-17.7 32.15a147.6 147.6 0 0 1-8.28 4.7c-1.43.65-1.24 1.27 1.32 4.27a52.3 52.3 0 0 0 6.35 6.11l3.36 2.61 62.08.9.6 31.67h-38.06c-29.43 0-38.85-.27-41.62-1.2-4.13-1.4-14.06-9.82-34.27-29.04l-14.42-13.72.16 43.96h-37.05V8.94h41.8m-5.45 51.77h19.67c19.14 0 19.74-.06 22.47-2.1 4.88-3.67 6.61-7.44 6.1-13.23-.53-5.97-2.84-9.08-8.6-11.58-3.26-1.42-6.39-1.65-21.73-1.65h-17.9v28.56M502.48.94h-49.8v131.14h53.07l-.03-8.03-.09-25.21.84.8c24.99 23.77 32.36 29.17 37.22 30.82 3.73 1.26 9.98 1.62 44.19 1.62h46.22l-.16-8.15-.61-31.68-.15-7.74-7.73-.1-59.4-.86-1.25-.97c-.4-.3-.87-.71-1.38-1.18l1.2-.71c15-8.96 22.87-23.4 21.57-39.66-.86-10.95-2.82-15.9-9.52-24a42.63 42.63 0 0 0-25.45-15C545.77 1.08 518.35.94 502.5.94zm2.54 39.21h9.91c14.03 0 16.8.23 18.52.98 3.25 1.4 3.58 2.1 3.83 4.96.26 2.85-.1 4-2.92 6.1l-.22.18c-1.87.34-8.79.34-17.45.34h-11.67V40.15z"/></svg>